<svg xmlns="http://www.w3.org/2000/svg" width="55" height="55" viewBox="0 0 55 53">
  <g id="Gruppe_4" data-name="Gruppe 4" transform="translate(-42 -22)">
    <path id="Ausschluss_1" data-name="Ausschluss 1" d="M-466.117,32.5a15.9,15.9,0,0,1-11.314-4.686A15.9,15.9,0,0,1-482.117,16.5a15.9,15.9,0,0,1,4.686-11.314A15.9,15.9,0,0,1-466.117.5,15.9,15.9,0,0,1-454.8,5.186,15.9,15.9,0,0,1-450.117,16.5,15.9,15.9,0,0,1-454.8,27.814,15.9,15.9,0,0,1-466.117,32.5Zm-7.454-17.8v0l-3.087,7.644a1.125,1.125,0,0,0-.012.831.991.991,0,0,0,.554.57l11.684,4.721a.97.97,0,0,0,.364.071,1.1,1.1,0,0,0,1-.7l3.088-7.645.983,2.682a.983.983,0,0,0,.926.659,1.018,1.018,0,0,0,.465-.114l4.907-2.494a1.15,1.15,0,0,0,.57-1.349l-3.409-11.049a1.014,1.014,0,0,0-.578-.641L-467.8,3.162a.966.966,0,0,0-.363-.07,1.036,1.036,0,0,0-.5.129L-478.79,8.8a1.149,1.149,0,0,0-.527,1.367l1.8,5.2a.982.982,0,0,0,.933.678,1.015,1.015,0,0,0,.447-.1l2.568-1.246Zm9.005,11.35h0l-9.776-3.949,1.512-3.745,3.1,1.252-1.228.884A1.143,1.143,0,0,0-471.271,22a.976.976,0,0,0,.828.459,1.037,1.037,0,0,0,.607-.2l1.569-1.13.344,1.9a.99.99,0,0,0,.974.839,1.013,1.013,0,0,0,.238-.029,1.143,1.143,0,0,0,.829-1.306l-.269-1.488,3.1,1.252-1.513,3.743Zm7.123-5.089h0l-1.355-3.7,2.123-5.255,2.283,7.4-3.05,1.551Zm-4.789-.688h0l-9.776-3.949,2.708-6.7.028-.07,1.6-3.969,1.558.629,4.526,12.462-.646,1.6Zm1.833-4.536v0l-1.964-5.408L-459.45,8.9l1.558.629-2.505,6.2Zm-15.533-2.246h0l-1.117-3.234,6.784-3.738-2.123,5.255-3.542,1.718Zm12.841-5.167h0l-.379-1.044,1.378.557-1,.488Z" transform="translate(547.117 32)" fill="#fe0404"/>
    <text id="J_" data-name="J    " transform="translate(43 22)" fill="#F29F05" font-size="40" font-family="Roboto-Regular, Roboto"><tspan x="-1" y="41" xml:space="preserve">J    </tspan></text>
  </g>
</svg>
